# xmcd CD database file
#
# Track frame offsets:
#	183
#	35708
#	69190
#	91650
#	109618
#	139980
#	156073
#	177578
#
# Disc length: 2744 seconds
#
# Revision: 0
# Processed by: cddbd v1.5PL3 Copyright (c) Steve Scherf et al.
# Submitted via: CDex 1.51
#
DISCID=640ab608
DTITLE=Frl. Mayer`s Hinterhausjazzer - Im Spiegelzelt Live
DYEAR=1988
DGENRE=Jazz
TTITLE0=Fidgetty Feet
TTITLE1=Ziggin and Zaggin
TTITLE2=Goody, Goody
TTITLE3=Toot, Toot,Tootsie Good bye
TTITLE4=That`s a Plenty
TTITLE5=Oh Marie
TTITLE6=Riverboat Shuffle
TTITLE7=Blues my Naughty Sweet gave to me
EXTD=YEAR: 1988
EXTT0=
EXTT1=
EXTT2=
EXTT3=
EXTT4=
EXTT5=
EXTT6=
EXTT7=
PLAYORDER=
